<svg preserveAspectRatio="xMidYMid meet" width="100%" height="100%" overflow="visible" style="display: block;" viewBox="0 0 219 51" fill="none" xmlns="http://www.w3.org/2000/svg">
<g id="logo-GeorgeMason">
<path id="Vector" d="M32.9487 8.2374C29.6825 5.40236 26.1253 3.62305 21.8168 3.36505C16.9976 3.0774 12.41 4.73809 8.91213 8.03871C2.46278 14.121 1.58684 24.1949 6.94051 31.2113C9.85044 35.025 13.6749 37.2817 18.4199 37.9845C22.4967 38.5895 26.6271 37.5575 30.1784 35.3452C30.2229 35.3185 30.2793 35.3304 30.309 35.3749C30.3179 35.3897 30.3239 35.4075 30.3239 35.4253V50.8935L26.9359 50.8964C26.9002 50.8964 26.8735 50.8697 26.8735 50.8342L26.8705 40.6298C26.8705 40.5675 26.8409 40.5468 26.7844 40.5675C25.8194 40.8759 24.8188 41.1013 23.7854 41.2407C17.3361 42.1126 10.9521 40.1583 6.29617 35.6032C-1.67644 27.8009 -2.14559 15.2538 5.27769 6.93257C11.8933 -0.481231 22.8679 -2.17158 31.4136 2.94395C32.6518 3.68533 33.8217 4.55719 34.9233 5.5536C34.956 5.58326 34.959 5.63071 34.9352 5.66333L32.9487 8.2374Z" fill="var(--fill-0, #111111)"/>
<g id="Vector_2">
</g>
<path id="Vector_3" d="M31.0424 10.7042L29.1094 13.1834C29.05 13.2605 28.9372 13.2753 28.86 13.216C28.857 13.213 28.851 13.21 28.8481 13.2071C27.8712 12.3174 26.7755 11.576 25.564 10.9889C22.1849 9.34597 18.0962 9.53873 15.0734 11.6383C12.6742 13.3079 11.1836 15.6121 10.6046 18.548C9.52081 24.0639 12.692 29.9979 18.4109 31.2997C19.8689 31.6319 21.306 31.6704 22.7253 31.4154C24.2545 31.1426 25.659 30.5376 26.9418 29.6035C27.0101 29.553 27.0427 29.4878 27.0427 29.4077L27.0398 27.5543C27.0398 27.4831 27.0041 27.4475 26.9299 27.4475H19.9787C19.9104 27.4475 19.9787 27.4119 19.9787 27.3437V24.1143L30.214 24.1172C30.2912 24.1172 30.3298 24.1558 30.3298 24.2329L30.3268 30.9913C30.3268 31.0773 30.2941 31.1455 30.2318 31.1989C28.1889 32.9693 25.8906 34.111 23.337 34.627C16.4482 36.0208 9.75241 31.7475 7.64717 25.1225C4.57987 15.4609 12.2348 5.42258 22.4908 6.67107C25.7095 7.06252 28.56 8.4059 31.0424 10.7042Z" fill="var(--fill-0, #111111)"/>
<path id="Vector_4" d="M62.6151 50.8964L62.6122 21.0039C62.6122 20.9268 62.5736 20.8912 62.4993 20.8912L58.2562 20.8882C58.173 20.8882 58.1048 20.9179 58.0513 20.9772L46.569 33.2248C46.5304 33.2634 46.468 33.2663 46.4294 33.2278L46.4264 33.2248L34.9174 20.9831C34.8639 20.9268 34.7986 20.8971 34.7214 20.8971L19.9788 20.8853V17.6084C19.9788 17.5758 19.9431 17.5461 19.9788 17.5461H36.2892C36.3486 17.5461 36.402 17.5698 36.4436 17.6113L46.4502 28.2605C46.4829 28.2961 46.5155 28.2961 46.5482 28.2605L56.4894 17.6469C56.5518 17.5787 56.629 17.5461 56.7211 17.5461H66.012C66.0417 17.5461 66.0655 17.5698 66.0655 17.5995V50.8281C66.0655 50.8608 66.0388 50.8904 66.0031 50.8904H62.6151V50.8964Z" fill="var(--fill-0, #111111)"/>
<path id="Vector_5" d="M98.3776 26.5968C99.0219 18.7204 110.501 18.7886 111.045 26.6917C111.158 28.3524 110.807 29.9894 109.833 31.3328C108.328 33.4146 105.73 34.233 103.271 33.7022C99.8622 32.9727 98.1014 29.9805 98.3776 26.5968ZM104.72 31.4455C106.754 31.4336 108.393 29.5653 108.381 27.273C108.369 24.9777 106.709 23.1272 104.675 23.139C102.642 23.1509 101.002 25.0192 101.014 27.3115C101.029 29.6039 102.686 31.4573 104.72 31.4455Z" fill="var(--fill-0, #111111)"/>
<path id="Vector_6" d="M187.629 31.4689C188.235 31.4867 188.752 31.3711 189.179 31.119C189.93 30.6831 190.183 29.74 189.357 29.1973C189.004 28.966 188.63 28.8059 188.238 28.711C186.136 28.2098 182.964 27.7739 182.676 25.0545C182.448 22.8689 183.924 21.2883 185.999 20.8791C188.202 20.4431 190.554 20.9146 192.27 22.4152C192.342 22.4775 192.35 22.5457 192.291 22.6198L190.931 24.4377C190.875 24.5148 190.809 24.5207 190.735 24.4584C189.708 23.5629 188.487 23.124 187.08 23.1417C186.204 23.1536 185.004 23.8001 185.572 24.8202C185.738 25.1168 186.047 25.3303 186.498 25.4548C187.389 25.704 188.291 25.9382 189.2 26.1577C191.014 26.5936 192.615 27.6345 192.63 29.7371C192.65 33.3847 189.066 34.212 186.168 33.7791C184.651 33.5507 183.362 32.9398 182.308 31.9404C182.252 31.8871 182.243 31.8011 182.287 31.7388L183.633 29.8498C183.692 29.7667 183.757 29.7638 183.829 29.832C184.883 30.8788 186.148 31.4215 187.629 31.4689Z" fill="var(--fill-0, #111111)"/>
<path id="Vector_7" d="M196.359 32.8126C191.822 29.7433 192.989 21.7779 198.749 20.8319C203.206 20.0964 206.686 23.3674 206.306 27.8869C206.051 30.9414 204.094 33.2811 201 33.7853C199.462 34.0374 197.671 33.6993 196.359 32.8126ZM199.979 31.4485C202.013 31.4425 203.658 29.5742 203.649 27.2789C203.64 24.9836 201.986 23.1272 199.949 23.1361C197.915 23.142 196.27 25.0103 196.279 27.3056C196.285 29.6009 197.942 31.4544 199.979 31.4485Z" fill="var(--fill-0, #111111)"/>
<path id="Vector_8" d="M83.3082 28.6457H80.1043C80.0153 28.6457 79.9678 28.6012 79.9678 28.5093L79.9648 26.5164C79.9648 26.4542 80.0153 26.4037 80.0776 26.4037L86.0994 26.4067C86.1291 26.4067 86.1528 26.4334 86.1528 26.463V31.4807C86.1528 31.5608 86.1261 31.629 86.0727 31.6853C84.0476 33.9124 80.7962 34.5945 78.0585 33.4617C74.7447 32.0916 73.4293 28.5537 74.4389 25.2561C75.4455 21.9644 78.7741 20.3867 82.0849 20.9561C83.6972 21.2319 84.9918 22.0978 85.9717 23.5539C86.0014 23.5983 85.9895 23.6577 85.945 23.6873C85.942 23.6903 85.939 23.6903 85.9361 23.6932L83.8605 24.832C83.7863 24.8735 83.7269 24.8587 83.6764 24.7935C83.0647 23.9601 82.269 23.4738 81.295 23.3374C77.723 22.8303 75.8463 26.9138 77.5359 29.7044C78.7296 31.6735 81.1792 32.0293 83.1034 30.8491C83.2102 30.7808 83.3082 30.7008 83.3914 30.6029C83.4419 30.5466 83.4656 30.4784 83.4656 30.4042V28.8177C83.4715 28.702 83.4181 28.6457 83.3082 28.6457Z" fill="var(--fill-0, #111111)"/>
<path id="Vector_9" d="M133.555 28.6457H130.324C130.25 28.6457 130.215 28.6101 130.215 28.5359V26.5135C130.215 26.4393 130.25 26.4037 130.324 26.4037H136.29C136.364 26.4037 136.4 26.4393 136.4 26.5135V31.4926C136.4 31.5786 136.37 31.6527 136.311 31.715C134.511 33.5625 132.341 34.2861 129.799 33.8828C126.102 33.2956 123.931 30.0009 124.451 26.3504C124.902 23.1832 127.299 21.1043 130.464 20.8612C132.926 20.6714 134.841 21.5521 136.207 23.5123C136.266 23.5954 136.251 23.6606 136.162 23.7081L134.149 24.8112C134.063 24.8587 133.992 24.8439 133.932 24.7697C132.753 23.3107 131.289 22.9192 129.538 23.5954C127.429 24.4109 126.657 27.1362 127.512 29.1113C128.617 31.6646 131.402 32.2073 133.611 30.6563C133.686 30.6059 133.721 30.5377 133.721 30.4487L133.718 28.8058C133.721 28.702 133.665 28.6457 133.555 28.6457Z" fill="var(--fill-0, #111111)"/>
<path id="Vector_10" d="M90.9721 23.489L90.9751 26.3151C90.9751 26.3655 91.0166 26.4041 91.0641 26.4041H96.5782C96.6286 26.4041 96.6672 26.4456 96.6672 26.493L96.6702 28.5541C96.6702 28.6045 96.6286 28.6431 96.5811 28.6431H91.0671C91.0166 28.6431 90.978 28.6846 90.978 28.732V31.5582C90.978 31.6086 91.0196 31.6471 91.0671 31.6471H97.0206C97.0711 31.6471 97.1097 31.6886 97.1097 31.7361V33.7971C97.1097 33.8475 97.0681 33.8861 97.0206 33.8861H88.3829C88.3324 33.8861 88.2938 33.8446 88.2938 33.7971L88.2908 21.2381C88.2908 21.1877 88.3324 21.1492 88.3799 21.1492H97.0176C97.0681 21.1492 97.1067 21.1907 97.1067 21.2381L97.1097 23.2992C97.1097 23.3496 97.0681 23.3881 97.0206 23.3881H91.0612C91.0107 23.4 90.9721 23.4386 90.9721 23.489Z" fill="var(--fill-0, #111111)"/>
<path id="Vector_11" d="M120.276 29.0315C120.229 29.0463 120.205 29.0968 120.22 29.1412C120.223 29.1472 120.226 29.1531 120.229 29.159L122.913 33.7497C122.969 33.8446 122.94 33.895 122.83 33.895H119.834C119.757 33.895 119.703 33.8623 119.665 33.7971L117.363 29.6424C117.322 29.5653 117.242 29.5208 117.153 29.5208L115.543 29.5238C115.472 29.5238 115.436 29.5594 115.436 29.6335L115.439 33.7823C115.439 33.8446 115.389 33.895 115.329 33.895H112.862C112.788 33.895 112.752 33.8564 112.752 33.7823V21.2767C112.752 21.1907 112.794 21.1492 112.88 21.1521C114.45 21.167 116.087 21.164 117.785 21.1432C118.967 21.1284 119.828 21.2292 120.365 21.4457C122.471 22.2909 123.278 24.3964 122.726 26.4782C122.387 27.7563 121.571 28.6074 120.276 29.0315ZM115.439 23.489L115.436 26.7481C115.436 26.8014 115.478 26.843 115.531 26.843L118.227 26.8459C119.228 26.8459 120.042 26.1045 120.045 25.1852V25.0725C120.048 24.1532 119.237 23.403 118.233 23.403C118.233 23.403 118.233 23.403 118.23 23.403L115.534 23.4C115.484 23.3941 115.439 23.4356 115.439 23.489Z" fill="var(--fill-0, #111111)"/>
<path id="Vector_12" d="M141.219 23.4742V26.3329C141.219 26.3744 141.251 26.4071 141.293 26.4071H146.837C146.878 26.4071 146.911 26.4397 146.911 26.4812V28.5749C146.911 28.6164 146.878 28.649 146.837 28.649H141.293C141.251 28.649 141.219 28.6816 141.219 28.7231V31.5819C141.219 31.6234 141.251 31.656 141.293 31.656H147.273C147.315 31.656 147.347 31.6887 147.347 31.7302V33.8238C147.347 33.8653 147.315 33.898 147.273 33.898H138.609C138.567 33.898 138.535 33.8653 138.535 33.8238V21.2352C138.535 21.1937 138.567 21.1611 138.609 21.1611H147.273C147.315 21.1611 147.347 21.1937 147.347 21.2352V23.3289C147.347 23.3704 147.315 23.403 147.273 23.403H141.293C141.251 23.4 141.219 23.4326 141.219 23.4742Z" fill="var(--fill-0, #111111)"/>
<path id="Vector_13" d="M156.644 25.2772C156.546 25.0222 156.496 25.0311 156.496 25.3068V33.7853C156.496 33.8594 156.457 33.898 156.383 33.898H153.951C153.859 33.898 153.815 33.8535 153.815 33.7645V21.2708C153.815 21.1996 153.85 21.164 153.922 21.164L157.491 21.1611C157.577 21.1611 157.633 21.1996 157.663 21.2797L160.576 28.8536C160.611 28.9485 160.65 28.9485 160.686 28.8536L163.596 21.2767C163.625 21.1996 163.682 21.1611 163.768 21.1611H167.334C167.396 21.1611 167.447 21.2115 167.447 21.2708L167.45 33.7882C167.45 33.8505 167.399 33.9009 167.337 33.9009H164.899C164.81 33.9009 164.765 33.8565 164.765 33.7645L164.763 25.2742C164.763 25.0222 164.718 25.0162 164.626 25.2505L161.291 33.7764C161.259 33.8594 161.199 33.9009 161.107 33.9009H160.169C160.083 33.9009 160.003 33.8476 159.97 33.7645L156.644 25.2772Z" fill="var(--fill-0, #111111)"/>
<path id="Vector_14" d="M177.605 31.7095L172.165 31.7065C172.129 31.7065 172.1 31.7273 172.085 31.7599L171.34 33.8358C171.328 33.8684 171.295 33.8921 171.259 33.8891L168.439 33.8862C168.394 33.8862 168.355 33.8476 168.355 33.8031C168.355 33.7942 168.358 33.7824 168.361 33.7735L173.169 21.2056C173.181 21.173 173.21 21.1522 173.246 21.1522L176.527 21.1552C176.56 21.1552 176.592 21.1759 176.604 21.2086L181.406 33.7794C181.423 33.8209 181.403 33.8713 181.358 33.8862C181.349 33.8891 181.337 33.8921 181.328 33.8921H178.507C178.472 33.8921 178.442 33.8713 178.427 33.8387L177.682 31.7629C177.67 31.7302 177.64 31.7095 177.605 31.7095ZM172.878 29.3697C172.866 29.4053 172.884 29.4438 172.919 29.4557C172.928 29.4586 172.934 29.4586 172.943 29.4586L176.815 29.4675C176.854 29.4675 176.883 29.4408 176.886 29.4023C176.886 29.3934 176.886 29.3845 176.883 29.3756L174.953 23.9695C174.941 23.9339 174.903 23.9161 174.867 23.9279C174.849 23.9339 174.834 23.9487 174.826 23.9665L172.878 29.3697Z" fill="var(--fill-0, #111111)"/>
<path id="Vector_15" d="M216.313 29.0701V21.2678C216.313 21.1937 216.351 21.1581 216.426 21.1581H218.834C218.944 21.1581 218.997 21.2115 218.997 21.3212L219 33.7289C219 33.8386 218.944 33.892 218.834 33.892L216.218 33.8891C216.132 33.8891 216.063 33.8535 216.013 33.7823L210.353 25.5886C210.276 25.4788 210.241 25.4907 210.241 25.6242L210.244 33.7823C210.244 33.8416 210.193 33.892 210.131 33.892H207.666C207.592 33.892 207.556 33.8535 207.556 33.7793V21.2648C207.556 21.2026 207.607 21.1521 207.669 21.1521L210.576 21.1492C210.632 21.1492 210.686 21.1759 210.716 21.2204L216.197 29.0997C216.274 29.2184 216.313 29.2035 216.313 29.0701Z" fill="var(--fill-0, #111111)"/>
<path id="Vector_16" d="M59.1262 50.89L55.7263 50.8929C55.6936 50.8929 55.6669 50.8663 55.6669 50.8336L55.6699 33.7285C55.6699 33.6425 55.6402 33.6306 55.5838 33.6929L47.3261 42.4472C47.2786 42.5005 47.2073 42.5302 47.1361 42.5302H45.8622C45.7553 42.5302 45.6633 42.4916 45.592 42.4116L37.3848 33.7078C37.3165 33.6336 37.2809 33.6484 37.2809 33.7493L37.2779 50.7743C37.2779 50.8455 37.2423 50.8781 37.174 50.8781L33.8306 50.8841L33.8603 25.0988C33.8603 24.9921 33.8959 24.9773 33.9701 25.0544L46.3908 38.2925C46.4472 38.3518 46.5006 38.3518 46.557 38.2925L58.9539 25.087C59.0697 24.9624 59.1262 24.9862 59.1262 25.1552V50.89Z" fill="var(--fill-0, #111111)"/>
<path id="Vector_17" d="M144.797 41.211C144.61 42.0651 145.646 42.4832 146.308 42.6286C148.672 43.1475 152.045 43.6873 151.965 46.8871C151.899 49.5708 149.862 50.7808 147.404 50.8964C145.245 50.9943 143.182 50.4605 141.64 48.954C141.593 48.9066 141.584 48.8295 141.626 48.7761L142.983 46.8604C143.03 46.7921 143.084 46.7892 143.146 46.8485C144.393 48.0466 145.83 48.5863 147.463 48.4766C149.423 48.3402 149.949 46.3414 147.787 45.8076C146.834 45.5704 145.881 45.3183 144.93 45.0544C144.39 44.9031 143.87 44.6629 143.375 44.3308C141.587 43.1386 141.557 40.4874 143.066 39.067C143.802 38.373 144.699 37.9638 145.762 37.8363C148.084 37.5575 150.035 38.0943 151.62 39.4436C151.683 39.494 151.692 39.5859 151.641 39.6512L150.251 41.5017C150.219 41.5491 150.153 41.558 150.109 41.5254C150.106 41.5224 150.103 41.5195 150.1 41.5165C149.2 40.7128 148.14 40.271 146.917 40.1909C146.062 40.1316 144.999 40.2769 144.797 41.211Z" fill="var(--fill-0, #111111)"/>
<path id="Vector_18" d="M81.1793 48.4943C82.6491 48.2481 83.3588 47.0323 83.3617 45.591C83.3706 43.1237 83.3706 40.7068 83.3588 38.3344C83.3588 38.2662 83.4122 38.2128 83.4805 38.2128H86.0015C86.1113 38.2128 86.1648 38.2662 86.1648 38.3759C86.144 40.2294 86.147 42.2281 86.1767 44.3781C86.1974 45.9232 86.0876 47.053 85.8471 47.7648C84.8998 50.5761 81.9157 51.3056 79.08 50.8934C77.0876 50.6057 75.7573 49.6241 75.0922 47.9516C74.8071 47.2369 74.6795 46.0329 74.7032 44.3425C74.7329 42.3319 74.7299 40.3361 74.7003 38.3551C74.7003 38.284 74.7567 38.2217 74.8279 38.2217C74.8279 38.2217 74.8279 38.2217 74.8309 38.2217L77.3845 38.2187C77.4677 38.2187 77.5063 38.2603 77.5063 38.3403C77.5063 40.8017 77.5063 43.1978 77.5092 45.5258C77.5181 47.7677 79.0206 48.859 81.1793 48.4943Z" fill="var(--fill-0, #111111)"/>
<path id="Vector_19" d="M97.0473 46.1486L97.0443 38.3226C97.0443 38.2485 97.0829 38.2129 97.1572 38.2129H99.5653C99.6395 38.2129 99.6752 38.2485 99.6752 38.3226V50.7867C99.6752 50.8608 99.6395 50.8964 99.5653 50.8964L96.8929 50.8994C96.8127 50.8994 96.7504 50.8668 96.7058 50.8015L91.1176 42.7086C91.0226 42.5722 90.9751 42.587 90.9751 42.7531V50.7303C90.9751 50.8401 90.9186 50.8934 90.8088 50.8934L88.4036 50.8964C88.3443 50.8964 88.2938 50.849 88.2908 50.7896C88.2908 50.7896 88.2908 50.7897 88.2908 50.7867V38.3196C88.2908 38.2603 88.3413 38.2099 88.4007 38.2099H91.2482C91.3403 38.2099 91.4145 38.2485 91.468 38.3226L96.9404 46.1783C97.0087 46.291 97.0473 46.2791 97.0473 46.1486Z" fill="var(--fill-0, #111111)"/>
<path id="Vector_20" d="M101.89 38.2099H104.408C104.453 38.2099 104.491 38.2485 104.491 38.2929V50.8134C104.491 50.8579 104.453 50.8964 104.408 50.8964H101.89C101.846 50.8964 101.807 50.8579 101.807 50.8134V38.2929C101.807 38.2485 101.846 38.2099 101.89 38.2099Z" fill="var(--fill-0, #111111)"/>
<path id="Vector_21" d="M112.019 47.6788L115.368 38.2544C115.377 38.2277 115.401 38.2099 115.43 38.2099H118.412C118.447 38.2099 118.477 38.2396 118.477 38.2752C118.477 38.284 118.474 38.2929 118.471 38.2989L113.673 50.8549C113.664 50.8786 113.637 50.8964 113.61 50.8964H110.302C110.276 50.8964 110.252 50.8786 110.24 50.8549L105.439 38.3048C105.427 38.2722 105.442 38.2336 105.474 38.2188C105.483 38.2158 105.489 38.2129 105.498 38.2129L108.476 38.2099C108.503 38.2099 108.53 38.2277 108.539 38.2544L111.894 47.6759C111.906 47.7085 111.944 47.7263 111.98 47.7144C111.998 47.7114 112.013 47.6966 112.019 47.6788Z" fill="var(--fill-0, #111111)"/>
<path id="Vector_22" d="M122.01 45.7396L122.013 48.5895C122.013 48.631 122.046 48.6636 122.087 48.6636H128.011C128.053 48.6636 128.085 48.6963 128.085 48.7378L128.088 50.8018C128.088 50.8433 128.056 50.8759 128.014 50.8759L119.403 50.8848C119.362 50.8848 119.329 50.8522 119.329 50.8107L119.32 38.2724C119.32 38.2309 119.353 38.1983 119.394 38.1983L128.005 38.1924C128.047 38.1924 128.08 38.225 128.08 38.2665L128.083 40.3335C128.083 40.375 128.05 40.4076 128.008 40.4076L122.082 40.4165C122.04 40.4165 122.007 40.4491 122.007 40.4907L122.01 43.3405C122.01 43.382 122.043 43.4147 122.084 43.4147L127.575 43.4117C127.616 43.4117 127.649 43.4443 127.649 43.4858V45.5795C127.649 45.621 127.616 45.6536 127.575 45.6536L122.087 45.6596C122.043 45.6655 122.01 45.6981 122.01 45.7396Z" fill="var(--fill-0, #111111)"/>
<path id="Vector_23" d="M137.736 46.2257L140.376 50.7451C140.435 50.8459 140.405 50.8964 140.289 50.8964L137.287 50.8993C137.225 50.8993 137.178 50.8726 137.151 50.8193L134.838 46.6438C134.796 46.5637 134.731 46.5252 134.642 46.5252H133.012C132.937 46.5252 132.902 46.5608 132.902 46.6319V50.7866C132.902 50.8608 132.866 50.8964 132.792 50.8964L130.277 50.8993C130.244 50.8993 130.22 50.8726 130.22 50.843V38.2751C130.22 38.2366 130.253 38.2039 130.292 38.2039H130.295C131.91 38.2306 133.561 38.2276 135.253 38.195C136.453 38.1713 137.32 38.2632 137.858 38.4679C139.832 39.2241 140.652 41.1961 140.275 43.2097C140.01 44.6332 139.188 45.5762 137.807 46.0359C137.706 46.0685 137.682 46.1337 137.736 46.2257ZM132.911 40.4963L132.89 43.7406C132.89 43.7969 132.934 43.8414 132.991 43.8414L135.699 43.8621C136.708 43.871 137.534 43.1178 137.543 42.1807V42.1777V42.1214C137.549 41.1872 136.735 40.4221 135.723 40.4162L133.015 40.3955C132.958 40.3955 132.914 40.4399 132.911 40.4963Z" fill="var(--fill-0, #111111)"/>
<path id="Vector_24" d="M153.452 38.2099H155.97C156.015 38.2099 156.054 38.2485 156.054 38.2929V50.8134C156.054 50.8579 156.015 50.8964 155.97 50.8964H153.452C153.408 50.8964 153.369 50.8579 153.369 50.8134V38.2929C153.369 38.2485 153.405 38.2099 153.452 38.2099Z" fill="var(--fill-0, #111111)"/>
<path id="Vector_25" d="M164.371 40.9204V50.8164C164.371 50.8608 164.335 50.8964 164.29 50.8964H161.769C161.725 50.8964 161.689 50.8608 161.689 50.8164V40.9204C161.689 40.8759 161.654 40.8403 161.609 40.8403H157.829C157.785 40.8403 157.749 40.8048 157.749 40.7603V38.2959C157.749 38.2514 157.785 38.2158 157.829 38.2158H168.231C168.275 38.2158 168.311 38.2514 168.311 38.2959V40.7603C168.311 40.8048 168.275 40.8403 168.231 40.8403H164.451C164.409 40.8403 164.371 40.8759 164.371 40.9204Z" fill="var(--fill-0, #111111)"/>
<path id="Vector_26" d="M175.33 43.1178L178.285 38.2485C178.3 38.2247 178.326 38.2099 178.353 38.2099L181.299 38.2129C181.343 38.2129 181.376 38.2485 181.376 38.2929C181.376 38.3078 181.373 38.3196 181.364 38.3315L177.079 45.6712C177.073 45.683 177.067 45.6979 177.067 45.7097L177.064 50.8193C177.064 50.8638 177.029 50.8994 176.984 50.8994H174.024C173.979 50.8994 173.944 50.8638 173.944 50.8193V45.769C173.944 45.7542 173.938 45.7394 173.932 45.7245L169.124 38.3345C169.101 38.2989 169.11 38.2485 169.145 38.2247C169.157 38.2158 169.175 38.2129 169.19 38.2129L172.141 38.2158C172.168 38.2158 172.195 38.2307 172.21 38.2544L175.191 43.1208C175.215 43.1594 175.262 43.1683 175.298 43.1475C175.313 43.1386 175.324 43.1297 175.33 43.1178Z" fill="var(--fill-0, #111111)"/>
<path id="Vector_27" d="M184.054 48.6929C184.054 49.9147 183.062 50.9052 181.839 50.9052C180.616 50.9052 179.624 49.9147 179.624 48.6929C179.624 47.4711 180.616 46.4806 181.839 46.4806C183.062 46.4806 184.054 47.4711 184.054 48.6929ZM183.689 48.6989C183.689 47.6758 182.86 46.8484 181.836 46.8484C180.812 46.8484 179.983 47.6758 179.983 48.6989C179.983 49.722 180.812 50.5493 181.836 50.5493C182.86 50.5493 183.689 49.719 183.689 48.6989Z" fill="var(--fill-0, #111111)"/>
<path id="Vector_28" d="M19.7086 47.9723L19.7056 50.7896C19.7056 50.8637 19.667 50.8993 19.5928 50.9023L19.3879 50.9082C19.2721 50.9112 19.2127 50.8578 19.2127 50.7392V47.8863C19.2127 47.8567 19.1889 47.833 19.1592 47.833L17.9864 47.8389C17.9418 47.8389 17.9032 47.8003 17.9032 47.7559V47.4504C17.9032 47.3733 17.9448 47.3377 18.019 47.3377C18.9484 47.3437 19.9105 47.3437 20.9082 47.3407C20.9824 47.3407 21.021 47.3763 21.021 47.4504C21.021 47.4504 21.021 47.5453 21.024 47.7351C21.024 47.8063 20.9913 47.8419 20.92 47.8419L19.8481 47.8389C19.7531 47.8359 19.7086 47.8804 19.7086 47.9723Z" fill="var(--fill-0, #111111)"/>
<path id="Vector_29" d="M24.4535 48.3786C24.4535 48.346 24.4268 48.3223 24.3941 48.3252C24.3734 48.3252 24.3526 48.3401 24.3437 48.3608C24.0586 49.1289 23.7379 49.9148 23.3846 50.7125C23.346 50.7955 23.2925 50.8637 23.2213 50.9171C23.1738 50.9497 23.1084 50.9408 23.0758 50.8964C23.0698 50.8904 23.0669 50.8815 23.0639 50.8756L22.0128 48.3727C21.9326 48.1829 21.894 48.1888 21.894 48.3964L21.8969 50.7807C21.8969 50.8519 21.8613 50.8904 21.793 50.8964L21.5852 50.9141C21.4634 50.926 21.404 50.8726 21.404 50.751V47.4801C21.404 47.3881 21.4486 47.3407 21.5406 47.3437L21.9712 47.3496C22.0632 47.3526 22.1256 47.397 22.1612 47.4801L23.1322 49.805C23.1441 49.8377 23.1827 49.8555 23.2183 49.8436C23.2361 49.8377 23.248 49.8228 23.2569 49.805L24.2427 47.4445C24.2754 47.3644 24.3348 47.3259 24.4209 47.3318L24.8603 47.3555C24.9167 47.3585 24.9613 47.4059 24.9613 47.4623V50.7362C24.9613 50.8459 24.9049 50.9053 24.795 50.9082L24.5931 50.9141C24.5307 50.9171 24.4773 50.8667 24.4743 50.8044V50.8015L24.4535 48.3786Z" fill="var(--fill-0, #111111)"/>
<path id="Vector_30" d="M181.334 49.0958L181.346 49.8579C181.346 49.9351 181.308 49.9736 181.23 49.9706L181.067 49.9677C180.993 49.9677 180.954 49.9291 180.954 49.855V47.5448C180.954 47.4648 180.996 47.4203 181.076 47.4084C181.922 47.2957 183.217 47.4025 182.742 48.6154C182.712 48.6866 182.665 48.7459 182.602 48.7874L182.374 48.9386C182.305 48.9831 182.287 49.075 182.332 49.1403C182.332 49.1433 182.335 49.1433 182.335 49.1462L182.786 49.7927C182.861 49.8995 182.831 49.9588 182.703 49.9677L182.581 49.9795C182.489 49.9855 182.415 49.9528 182.362 49.8817C182.178 49.6474 182.02 49.4042 181.89 49.1522C181.795 48.9742 181.619 48.9386 181.438 48.9683C181.376 48.9831 181.334 49.0335 181.334 49.0958ZM181.334 47.8681L181.346 48.5768C181.346 48.6213 181.385 48.6599 181.432 48.6569L181.988 48.645C182.24 48.6391 182.439 48.4553 182.433 48.2299V48.1676C182.43 47.9422 182.222 47.7643 181.97 47.7702L181.414 47.7821C181.367 47.7821 181.331 47.8206 181.334 47.8681Z" fill="var(--fill-0, #111111)"/>
</g>
</svg>
