<svg preserveAspectRatio="xMidYMid meet" width="100%" height="100%" overflow="visible" style="display: block;" viewBox="0 0 212 47" fill="none" xmlns="http://www.w3.org/2000/svg">
<g id="logo-wizards" clip-path="url(#clip0_0_12)">
<path id="Vector" d="M26.8197 0.755237C28.6586 -0.45614 30.9954 0.43793 33.0535 0.108351C32.4136 0.52383 31.616 1.03573 31.7142 1.92103C31.8281 5.08008 31.9982 8.23912 32.0437 11.4052C33.7389 8.32152 35.3342 5.19052 36.9873 2.08757C37.408 1.32674 37.7183 0.264375 38.7386 0.185486C40.3233 0.0750426 41.9151 0.218795 43.5051 0.103092C42.9687 0.439683 42.2797 0.788545 42.2534 1.52133C42.6198 4.76628 42.8968 8.01999 43.2982 11.2614C45.2459 7.66762 46.8657 3.90026 48.8361 0.322226C50.6557 -0.0967589 52.5771 0.315214 54.43 0.0908203C53.9164 0.492275 53.4168 0.937557 53.1258 1.53886C50.8416 5.82514 48.5451 10.1061 46.2784 14.4047C45.9453 15.1568 45.2196 15.7476 44.3711 15.7476C42.6076 15.8037 40.8457 15.7511 39.0822 15.7546C39.0138 12.7621 38.8894 9.76956 38.6439 6.78933C37.0294 9.71697 35.6147 12.7919 33.7985 15.588C31.8877 15.9772 29.9068 15.6634 27.9697 15.7738C27.549 10.7688 27.0809 5.76728 26.8197 0.755237Z" fill="var(--fill-0, #111111)"/>
<path id="Vector_2" d="M54.6772 1.22855C54.9717 0.555367 55.6799 0.19248 56.3864 0.16969C58.0238 0.104826 59.6628 0.173196 61.2967 0.143394C62.0908 3.62325 62.9305 7.0961 63.7544 10.5689C63.8877 11.2351 64.3259 12.0556 65.1271 11.9679C67.3937 11.9837 69.6622 11.9802 71.9288 11.9679C72.6634 11.8925 73.7415 11.8312 73.9483 10.9581C74.2516 10.4673 73.6871 9.86421 73.184 9.90979C70.9261 9.6065 68.535 10.2727 66.3629 9.42243C65.1761 8.96488 64.4083 7.68163 64.645 6.41941C64.8939 4.70665 65.1937 2.90449 66.1999 1.45645C67.1273 0.332726 68.6998 0.195986 70.0584 0.150406C72.9561 0.153912 75.8539 0.131122 78.7552 0.162678C79.4353 0.117098 79.8491 0.911242 79.7456 1.51255C79.5563 2.77301 79.1969 3.99841 79.0462 5.26939C78.4642 4.62952 77.8962 3.70389 76.8899 3.86518C74.7565 3.87745 72.623 3.80557 70.4931 3.90374C69.4571 3.83187 68.6629 5.5043 69.8077 5.93907C71.6659 6.23008 73.5592 5.96887 75.4332 6.07931C76.5832 6.12139 77.7559 6.78756 78.1802 7.8955C78.6833 9.1209 78.1872 10.4445 77.9803 11.6821C77.663 12.9338 77.2809 14.3871 76.0783 15.0796C74.8108 15.7072 73.3576 15.6932 71.9814 15.7598C68.4526 15.7756 64.922 15.7703 61.3931 15.7633C60.7848 15.8124 60.2431 15.5547 59.8083 15.1585C59.6804 14.4397 59.5279 13.728 59.3806 13.0215C57.4067 13.025 55.4275 13.0215 53.4501 13.0215C52.9312 13.9068 52.7156 15.1445 51.7514 15.6546C50.0264 15.9263 48.2558 15.6581 46.5203 15.8177C47.8859 14.9218 48.3856 13.3178 49.1236 11.9521C50.9888 8.38461 52.7997 4.7908 54.6772 1.23205M57.5557 4.47349C56.7756 6.04776 56.0165 7.62903 55.2855 9.22433C56.3899 9.22433 57.4978 9.22784 58.6075 9.22083C58.2376 7.63955 57.9904 6.03549 57.5557 4.47349Z" fill="var(--fill-0, #111111)"/>
<path id="Vector_3" d="M80.971 0.127975C82.7556 0.161283 84.542 0.161283 86.3266 0.124468C85.8427 2.24569 85.415 4.38445 84.8961 6.50216C86.749 5.37493 89.0525 6.1533 91.1071 5.91138C91.3841 4.57553 91.7277 3.25196 91.9433 1.9091C92.1361 1.15703 91.5383 0.589034 91.0685 0.112197C92.9793 0.184073 94.8884 0.138493 96.8027 0.145505C95.665 5.23644 94.7604 10.3975 93.4772 15.4516C92.0888 16.0757 90.4918 15.6252 89.021 15.7952C89.4329 13.7669 89.8835 11.7509 90.2849 9.72432C88.2882 9.69802 86.2862 9.72081 84.2895 9.70854C83.8548 11.6632 83.5322 13.646 82.9853 15.5726C81.5145 15.8706 80.0121 15.7391 78.5255 15.7812C79.4441 11.4231 80.3873 7.07717 81.3023 2.72253C81.5215 1.83722 81.5285 0.883551 80.9693 0.127975" fill="var(--fill-0, #111111)"/>
<path id="Vector_4" d="M98.0386 1.92168C98.1823 1.22571 98.4137 0.314109 99.2499 0.186134C100.721 0.0809493 102.2 0.208924 103.671 0.114258C103.221 0.496429 102.703 0.894377 102.609 1.52549C101.879 4.67226 101.25 7.84358 100.57 11.0009C100.263 12.5821 99.7636 14.1441 99.8179 15.7745C98.2402 15.764 96.6624 15.7587 95.09 15.778C96.0734 11.1586 97.0569 6.54104 98.0403 1.92168" fill="var(--fill-0, #111111)"/>
<path id="Vector_5" d="M104.534 0.0826962C106.043 -0.0277477 107.559 -0.00495767 109.077 0.0230916C109.558 -0.0154761 110.005 0.314102 110.205 0.745359C111.642 3.30661 112.981 5.92395 114.482 8.45013C114.91 6.26755 115.455 4.11127 115.841 1.92518C116.067 1.18713 115.52 0.638422 115.138 0.10198C116.991 0.196646 118.849 0.135289 120.709 0.14756C119.604 5.28758 118.598 10.4521 117.406 15.5729C115.678 15.9095 113.914 15.6868 112.175 15.8113C112.704 15.373 113.031 14.6771 112.515 14.0863C111.255 11.7757 109.977 9.47568 108.729 7.15987C107.991 9.94025 107.591 12.7995 106.849 15.5799C105.37 15.7272 103.88 15.6518 102.4 15.6711C103.331 11.2147 104.302 6.76192 105.23 2.3056C105.552 1.46938 105.037 0.698026 104.534 0.0809431" fill="var(--fill-0, #111111)"/>
<path id="Vector_6" d="M123.451 0.759082C124.597 0.177061 125.924 0.134987 127.188 0.141999C129.965 0.154271 132.745 0.149012 135.522 0.141999C136.074 0.141999 136.835 0.134987 137.035 0.795897C136.94 2.18083 136.463 3.51141 136.274 4.88933C135.895 4.416 135.517 3.7621 134.814 3.86378C132.291 3.89358 129.756 3.75334 127.241 3.95144C125.649 4.04961 125.607 5.99027 125.312 7.16658C125.135 8.61462 124.352 10.1363 124.757 11.5651C126.066 12.1295 127.625 11.9805 129.031 11.8946C129.958 11.9139 130.347 11.0391 130.661 10.3291C129.492 10.3186 128.135 9.98553 127.253 10.9988C127.861 9.55778 127.579 7.62063 128.838 6.53547C130.922 6.31283 133.04 6.50918 135.14 6.44431C135.287 6.60384 135.582 6.92115 135.731 7.07893C135.459 8.92492 135.064 10.7516 134.57 12.5485C134.191 13.9107 133.238 15.264 131.741 15.4692C129.108 15.9425 126.408 15.7304 123.749 15.7461C122.493 15.6217 120.926 15.7987 120.034 14.7171C119.371 13.5215 119.808 12.1558 120.034 10.9076C120.518 8.67247 120.981 6.42853 121.471 4.19687C121.782 2.9031 122.236 1.47258 123.454 0.759082" fill="var(--fill-0, #111111)"/>
<path id="Vector_7" d="M138.835 0.244962C143.521 0.0135553 148.242 0.222172 152.942 0.143283C152.59 1.85253 152.207 3.55477 151.887 5.26928C151.462 4.80472 151.135 4.17536 150.498 3.97902C149.446 3.88786 148.391 3.95623 147.343 3.92993C146.708 6.39651 146.265 8.90516 145.712 11.3893C145.451 12.8373 144.899 14.2748 145.115 15.7737C143.514 15.7579 141.919 15.7737 140.325 15.7544C141.119 11.8118 142.047 7.89714 142.788 3.94395C140.999 4.13329 138.446 3.20591 137.477 5.29382C138.003 3.64067 137.855 1.70002 138.835 0.243208" fill="var(--fill-0, #111111)"/>
<path id="Vector_8" d="M157.579 0.177061C160.356 0.147258 163.139 0.0981723 165.916 0.199851C167.122 0.206863 168.37 0.951921 168.405 2.27374C168.327 4.43704 167.634 6.53021 167.248 8.65143C166.749 10.6745 166.64 12.9517 165.262 14.6277C163.851 15.8391 161.842 15.6567 160.114 15.7654C157.644 15.6743 155.089 16.0231 152.684 15.3605C151.149 14.7662 151.496 12.8255 151.685 11.5475C152.369 8.61287 152.786 5.60459 153.701 2.73305C154.181 1.03432 155.913 0.178814 157.579 0.175308M158.755 3.99702C157.68 4.14427 157.507 5.38896 157.295 6.24446C157.014 7.9467 156.376 9.61563 156.409 11.3547C156.942 12.1646 158.138 11.9262 158.985 11.991C160.093 11.9297 161.728 12.1769 162.203 10.8568C162.74 9.29131 162.925 7.62939 163.33 6.03059C163.436 5.37669 163.827 4.33887 162.987 4.02506C161.598 3.74107 160.145 3.80944 158.753 3.99877" fill="var(--fill-0, #111111)"/>
<path id="Vector_9" d="M168.949 0.0262962C170.644 0.0525923 172.346 -0.0718762 174.04 0.0718762C174.418 0.326072 174.641 0.741552 174.872 1.1395C176.212 3.57628 177.539 6.01481 178.894 8.44808C179.458 6.25849 179.862 4.03032 180.354 1.82495C180.547 1.12548 179.923 0.596046 179.521 0.119209C181.404 0.194592 183.292 0.115703 185.18 0.175308C184.05 5.25572 183.089 10.373 181.893 15.4358C180.23 16.1248 178.329 15.5901 176.578 15.7917C176.843 15.4744 177.108 15.1606 177.372 14.8451C175.973 12.2803 174.595 9.69978 173.158 7.15781C172.629 9.45435 172.167 11.7649 171.687 14.0737C171.479 14.5576 171.605 15.3184 171.079 15.5989C169.671 15.7619 168.256 15.6374 166.851 15.6708C167.827 11.1461 168.772 6.61787 169.733 2.09493C170.036 1.2815 169.373 0.631108 168.949 0.0298023" fill="var(--fill-0, #111111)"/>
<path id="Vector_10" d="M1.93712 19.4578C4.89975 18.9967 7.8992 19.6541 10.8794 19.4052C9.91168 20.131 8.55659 20.9339 8.65125 22.3258C8.88966 27.9322 9.04043 33.549 9.35422 39.1519C12.7481 33.0424 15.865 26.7857 19.2151 20.6534C19.8321 19.5332 21.2573 19.3596 22.4073 19.3105C24.7634 19.2877 27.1212 19.314 29.4773 19.307C28.4518 19.996 27.0722 20.8725 27.3702 22.3293C27.9452 28.0111 28.5956 33.6893 29.1145 39.378C32.3032 33.0424 35.3973 26.6559 38.5493 20.301C38.7982 19.4683 39.7677 19.435 40.4829 19.3333C43.2965 19.2579 46.1154 19.3403 48.9343 19.2948C47.9175 20.1643 46.8657 21.0619 46.2416 22.2715C42.108 30.1095 38.0023 37.9633 33.8494 45.789C33.3498 46.8023 32.1174 46.9951 31.1024 46.9846C28.0118 46.9916 24.9212 46.9688 21.8306 46.9916C21.6009 42.0287 21.3082 37.0692 21.1048 32.1062C21.0785 31.8152 20.9944 31.5435 20.8559 31.2928C18.3105 36.0507 15.7563 40.8068 13.2039 45.5611C12.841 46.4079 12.0118 46.9986 11.0739 46.9601C8.05171 47.0162 5.02948 46.9601 2.00724 46.9829C1.38842 38.512 0.648638 30.0464 0.0315687 21.5738C-0.199832 20.4202 0.887051 19.5507 1.93887 19.4595" fill="var(--fill-0, #111111)"/>
<path id="Vector_11" d="M48.908 21.9696C49.199 20.9475 49.646 19.5363 50.8714 19.4013C53.4256 19.4627 55.978 19.4574 58.5321 19.4171C57.7713 20.0745 56.9351 20.795 56.7914 21.8574C55.4188 28.179 54.0864 34.5076 52.7524 40.8327C52.3667 42.8645 51.6059 44.9068 52.109 46.9912C49.2603 46.9755 46.4152 46.9912 43.5682 46.9842C45.3651 38.6501 47.1164 30.3054 48.9097 21.9713" fill="var(--fill-0, #111111)"/>
<path id="Vector_12" d="M59.3175 21.7084C59.6839 20.483 60.7515 19.3487 62.1171 19.4434C70.1863 19.5451 78.2433 19.2277 86.3108 19.3066C85.8795 21.1456 85.5885 23.0179 85.0731 24.8376C79.1952 30.0004 73.2226 35.0703 67.3429 40.2419C71.1558 40.2524 74.9686 40.2489 78.785 40.2454C80.1874 40.284 81.248 39.2321 82.2507 38.4029C81.66 40.7363 81.3006 43.1275 80.7116 45.4608C80.4802 46.5004 79.388 47.0263 78.3923 46.9702C70.2284 47 62.0663 46.9825 53.9024 46.9772C54.3441 45.4029 54.288 43.5955 55.0857 42.1738C61.3125 36.7375 67.6374 31.4116 73.8747 25.9876C69.8305 25.9806 65.7915 25.9683 61.7507 25.9911C60.2975 25.9841 59.0195 26.752 57.9484 27.6583C58.5006 25.6984 58.7583 23.663 59.314 21.7084" fill="var(--fill-0, #111111)"/>
<path id="Vector_13" d="M96.0664 20.6832C96.5696 19.6664 97.7423 19.2457 98.817 19.3018C101.68 19.3176 104.548 19.272 107.41 19.3316C109.547 28.5616 111.775 37.7687 113.977 46.9846C110.341 46.9917 106.704 46.9654 103.068 47.0004C103.836 46.5814 104.62 45.9258 104.616 44.9651C104.506 44.0079 104.264 43.077 104.03 42.1461C100.57 42.1426 97.1042 42.1567 93.6437 42.1391C92.4482 43.6783 92.2851 46.3115 90.178 46.925C87.2381 47.0723 84.2878 46.9373 81.3462 46.9864C83.7181 45.477 84.6139 42.7422 85.9041 40.4036C89.2787 33.8208 92.6708 27.2503 96.0682 20.6832M96.7063 35.5125C98.689 35.5055 100.67 35.509 102.656 35.509C102.13 32.6042 101.464 29.7291 100.894 26.8348C99.4638 29.7098 98.0982 32.6182 96.7063 35.5125Z" fill="var(--fill-0, #111111)"/>
<path id="Vector_14" d="M118.472 19.2909C126.424 19.3329 134.379 19.2874 142.334 19.3101C143.782 19.4574 145.602 19.4609 146.522 20.8003C147.415 22.1466 146.924 23.8559 146.678 25.3285C145.953 28.7031 145.683 32.2777 143.986 35.349C143.156 36.9005 141.372 37.4896 139.726 37.6491C140.716 40.1087 141.673 42.5857 142.711 45.0295C143.048 45.9219 143.937 46.3847 144.671 46.9176C141.361 47.0719 138.043 46.9404 134.73 46.986C133.664 43.9444 132.672 40.88 131.593 37.8472C129.309 37.8402 127.029 37.8402 124.743 37.8472C124.19 40.6013 123.589 43.3431 122.984 46.0866C122.523 46.8352 121.57 46.9842 120.768 46.9842C118.821 47 116.868 46.9807 114.92 46.9807C116.665 38.8745 118.426 30.7753 120.178 22.6725C120.495 21.2999 119.492 20.078 118.475 19.2944M125.758 33.1595C126.745 32.353 127.714 31.203 129.109 31.2679C131.704 31.2188 134.311 31.3398 136.905 31.2258C138.229 30.9383 138.437 29.3991 138.751 28.3122C138.914 27.5373 139.107 26.2997 138.104 26.0349C134.523 25.8877 130.929 26.0349 127.346 25.9666C126.774 28.3543 126.324 30.77 125.758 33.1577" fill="var(--fill-0, #111111)"/>
<path id="Vector_15" d="M150.489 19.2996C158.49 19.3224 166.491 19.2926 174.49 19.3154C175.872 19.4486 177.532 19.4557 178.519 20.5934C179.464 21.7013 179.188 23.2686 179.006 24.5922C178.072 29.4955 177.127 34.3936 176.187 39.297C175.766 41.1921 175.279 43.1362 174.227 44.7964C173.149 46.4653 171.012 46.8738 169.17 46.9755C161.227 47.0088 153.279 46.9562 145.336 47.0017C146.417 46.1199 147.472 45.0225 147.718 43.5938C149.171 36.7392 150.635 29.8847 152.095 23.0337C152.526 21.5348 151.494 20.2568 150.488 19.2996M159.416 25.9648C158.348 30.777 157.342 35.5997 156.338 40.4225C159.87 40.4225 163.408 40.4382 166.943 40.4189C167.79 40.4382 168.505 39.765 168.616 38.9358C169.534 35.1983 170.308 31.4186 170.988 27.632C171.196 26.9097 170.802 25.9718 169.952 26.0122C166.44 25.9175 162.927 26.0244 159.416 25.9631" fill="var(--fill-0, #111111)"/>
<path id="Vector_16" d="M185.513 20.1274C188.898 18.9441 192.541 19.3928 196.06 19.3069C200.724 19.314 205.391 19.2964 210.059 19.314C211.027 19.2877 212.144 20.1011 211.984 21.167C211.556 23.6143 210.974 26.0353 210.512 28.4825C209.846 27.3168 208.908 25.9669 207.407 25.9862C202.236 25.9634 197.064 25.9897 191.894 25.9704C191.006 25.9669 190.033 26.0352 189.31 26.605C188.728 27.2624 188.274 28.3265 188.827 29.1435C189.421 29.7448 190.31 29.8394 191.12 29.8359C195.288 29.8359 199.457 29.8237 203.629 29.8359C205.759 29.8429 208.119 30.8089 208.997 32.888C209.951 35.018 209.183 37.3812 208.788 39.5567C208.22 41.8182 207.596 44.4864 205.41 45.7346C203.107 46.8776 200.447 46.9179 197.932 46.9828C191.887 46.9758 185.838 46.9898 179.79 46.9758C178.79 47.0143 177.304 46.6234 177.353 45.3752C177.579 42.7123 178.401 40.1405 178.729 37.4881C179.304 38.6907 180.042 40.3667 181.653 40.2422C187.207 40.2457 192.764 40.2492 198.319 40.2422C199.764 40.2755 201.906 39.6865 201.724 37.844C201.652 36.7395 200.306 36.5204 199.417 36.4906C195.138 36.4415 190.86 36.4976 186.586 36.4643C184.248 36.3889 181.637 35.3143 180.754 32.9844C179.96 30.8545 180.878 28.6193 181.257 26.5016C181.865 24.021 182.835 21.025 185.513 20.1274Z" fill="var(--fill-0, #111111)"/>
</g>
<defs>
<clipPath id="clip0_0_12">
<rect width="212" height="47" fill="white"/>
</clipPath>
</defs>
</svg>
